<?xml version="1.0" encoding="utf-8"?><!-- Uploaded to: SVG Repo, www.svgrepo.com, Generator: SVG Repo Mixer Tools -->
<svg width="800px" height="800px" viewBox="0 0 24 24" fill="none" xmlns="http://www.w3.org/2000/svg"><path fill-rule="evenodd" clip-rule="evenodd" d="M2.538 4.113a1 1 0 0 1 1.035.068l10 7a1 1 0 0 1 0 1.638l-10 7A1 1 0 0 1 2 19V5a1 1 0 0 1 .538-.887ZM16 5.8A1.8 1.8 0 0 1 17.8 4h1.4A1.8 1.8 0 0 1 21 5.8v12.4a1.8 1.8 0 0 1-1.8 1.8h-1.4a1.8 1.8 0 0 1-1.8-1.8V5.8Z" fill="#000000"/></svg>