<svg xmlns="http://www.w3.org/2000/svg" shape-rendering="geometricPrecision" text-rendering="geometricPrecision" image-rendering="optimizeQuality" fill-rule="evenodd" clip-rule="evenodd" viewBox="0 0 482 512.281"><path fill-rule="nonzero" d="M437.601 195.375c-3.264-9.757 1.999-20.323 11.756-23.586 9.757-3.263 20.324 1.999 23.587 11.756 6.421 19.066 9.517 48.662 9 76.806-.501 27.58-4.531 54.68-12.331 70.687-4.51 9.271-15.698 13.129-24.97 8.619-9.272-4.511-13.13-15.698-8.619-24.97 5.419-11.125 8.264-32.368 8.677-54.921.448-24.338-1.99-49.225-7.1-64.391zm-72.807 60.763v218.56c0 10.874-4.375 20.031-11.099 26.646a38.105 38.105 0 01-26.651 10.937v-.068c-9.141-.005-18.413-3.273-25.889-10.478l-98.152-79.744H81.243c-22.297 0-42.611-9.126-57.327-23.832C9.162 383.421 0 363.118 0 340.81V192.186c0-22.313 9.162-42.611 23.916-57.349 14.716-14.706 35.03-23.832 57.327-23.832h120.642l98.508-99.713C308.046 3.503 317.626 0 327.044 0a38.104 38.104 0 0126.651 10.932c6.714 6.614 11.099 15.756 11.099 26.646v218.56zm-35.208 218.56V37.578c0-.768-.203-1.316-.511-1.619-.193-.188-.507-.376-.893-.532a3.027 3.027 0 00-1.138-.22c-.559 0-1.149.225-1.624.705L222.575 140.016c-3.232 3.79-8.04 6.197-13.407 6.197H81.243c-12.686 0-24.224 5.174-32.572 13.516-8.305 8.296-13.463 19.786-13.463 32.457V340.81c0 12.676 5.158 24.162 13.463 32.457 8.348 8.342 19.886 13.516 32.572 13.516h127.925v.058a17.465 17.465 0 0111.073 3.931l103.42 84.025a17.44 17.44 0 011.759 1.567c.522.532 1.112.777 1.624.777v-.068c.402 0 .793-.078 1.138-.219.381-.151.7-.345.893-.538.308-.302.511-.851.511-1.618z"/></svg>