<?xml version="1.0" encoding="iso-8859-1"?>
<!-- Uploaded to: SVG Repo, www.svgrepo.com, Generator: SVG Repo Mixer Tools -->
<svg fill="#000000" height="800px" width="800px" version="1.1" id="Layer_1" xmlns="http://www.w3.org/2000/svg" xmlns:xlink="http://www.w3.org/1999/xlink" 
	 viewBox="0 0 511.999 511.999" xml:space="preserve">
<g>
	<g>
		<path d="M339.141,71.203l-154.63-69.7c-5.261-2.373-11.367-1.913-16.213,1.22c-4.846,3.132-7.774,8.508-7.774,14.28v204.643
			l-72.49,9.243c-9.236,1.207-17.915,4.912-25.098,10.713c-10.41,8.405-16.924,20.362-18.341,33.667
			c-1.417,13.304,2.431,26.364,10.838,36.773c8.406,10.409,20.363,16.924,33.667,18.341c1.808,0.193,3.609,0.288,5.401,0.288
			c11.402,0,22.378-3.86,31.374-11.124l57.898-46.751c3.915-3.18,6.873-7.258,8.69-11.812c1.316-2.414,2.065-5.182,2.065-8.125
			V110.996l118.392,54.091c0.736,0.335,1.484,0.595,2.237,0.818v125.441l-72.49,9.243c-9.235,1.207-17.913,4.912-25.098,10.712
			c-21.488,17.354-24.854,48.953-7.503,70.441c9.884,12.242,24.392,18.601,39.02,18.601c11.052,0,22.173-3.63,31.421-11.098
			l57.898-46.751c3.915-3.179,6.873-7.257,8.689-11.811c1.316-2.414,2.065-5.182,2.065-8.125V86.702
			C349.156,80.016,345.236,73.95,339.141,71.203z"/>
	</g>
</g>
<g>
	<g>
		<path d="M450.692,181.356c-9.389,0-17.001,7.612-17.001,17.001v204.5l-73.624,9.386c-9.236,1.207-17.915,4.912-25.098,10.713
			c-21.489,17.352-24.856,48.951-7.503,70.441c9.884,12.242,24.392,18.601,39.02,18.601c11.052,0,22.173-3.63,31.421-11.098
			l57.897-46.751c2.685-2.181,4.916-4.786,6.644-7.675c3.227-3.094,5.245-7.44,5.245-12.263V198.357
			C467.693,188.968,460.082,181.356,450.692,181.356z"/>
	</g>
</g>
</svg>